<svg width="12" height="10" viewBox="0 0 12 10" fill="none" xmlns="http://www.w3.org/2000/svg">
<path d="M11.1429 4.17033H2.57143L5.39143 1.42669C5.47177 1.34916 5.53553 1.25693 5.57905 1.15531C5.62257 1.05368 5.64497 0.944684 5.64497 0.834595C5.64497 0.724506 5.62257 0.615506 5.57905 0.513883C5.53553 0.412261 5.47177 0.320027 5.39143 0.242502C5.23083 0.0871807 5.01359 0 4.78714 0C4.5607 0 4.34345 0.0871807 4.18286 0.242502L0.505714 3.82842C0.183782 4.13977 0.00191382 4.56263 0 5.00427C0.00417136 5.443 0.185867 5.86247 0.505714 6.17177L4.18286 9.75769C4.26278 9.8349 4.35754 9.89603 4.46175 9.93761C4.56595 9.97918 4.67755 10.0004 4.79017 10C4.9028 9.99961 5.01424 9.97764 5.11814 9.93535C5.22204 9.89306 5.31636 9.83127 5.39571 9.75352C5.47507 9.67577 5.53791 9.58356 5.58064 9.48218C5.62337 9.3808 5.64516 9.27222 5.64476 9.16265C5.64436 9.05307 5.62179 8.94465 5.57832 8.84356C5.53485 8.74248 5.47135 8.65071 5.39143 8.5735L2.57143 5.8382H11.1429C11.3702 5.8382 11.5882 5.75034 11.7489 5.59395C11.9097 5.43755 12 5.22544 12 5.00427C12 4.78309 11.9097 4.57098 11.7489 4.41459C11.5882 4.25819 11.3702 4.17033 11.1429 4.17033Z" fill="#1A3254"/>
</svg>
