<svg width="45" height="45" viewBox="0 0 45 45" fill="none" xmlns="http://www.w3.org/2000/svg">
<g clip-path="url(#clip0_31_199)">
<path d="M8.38654 6.20858C7.10047 6.20858 5.84373 6.20858 4.58699 6.20858C3.87289 6.20858 3.15765 6.2052 2.44354 6.20858C1.64483 6.21307 1.41582 6.44693 1.41469 7.25982C1.41243 9.02164 1.41469 10.7835 1.41469 12.5453C1.41469 16.0318 1.41469 19.5183 1.41469 23.0049C1.41469 23.2095 1.41469 23.4141 1.41469 23.6862C1.64257 23.6975 1.84112 23.7143 2.03855 23.7143C10.7635 23.7154 19.4885 23.7177 28.2123 23.7031C28.4763 23.7031 28.8237 23.594 28.9885 23.4085C29.944 22.3303 31.089 21.6085 32.5195 21.3555C32.6278 21.3364 32.7305 21.2858 32.876 21.2374C32.876 19.497 32.876 17.7565 32.876 16.0161C32.876 15.8103 32.8557 15.6001 32.8873 15.3988C32.9493 15.0019 33.1986 14.6826 33.5957 14.7658C33.8631 14.822 34.1181 15.1144 34.2941 15.3617C34.3933 15.5011 34.3268 15.762 34.3279 15.9677C34.329 17.7262 34.3279 19.4857 34.3279 21.1183C35.236 21.5163 36.1239 21.7692 36.8583 22.2527C38.8494 23.5625 39.7677 25.4896 39.4925 27.8417C39.215 30.2118 37.8838 31.9118 35.614 32.7258C33.2765 33.5634 31.1646 33.0462 29.3878 31.3204C29.0189 30.9617 28.6737 30.8201 28.1683 30.8246C25.4055 30.8482 22.6427 30.8358 19.8292 30.8358V34.9362C20.4914 34.9362 21.1491 34.8867 21.7932 34.9609C22.0448 34.9902 22.3663 35.2566 22.4656 35.495C22.5401 35.6726 22.3539 36.0088 22.2005 36.2123C22.1148 36.3259 21.8598 36.3495 21.6804 36.3495C18.6717 36.3574 15.6641 36.354 12.6554 36.3574C12.1782 36.3574 11.8397 36.191 11.7924 35.6771C11.7517 35.233 12.08 34.9463 12.6497 34.9328C13.2646 34.9171 13.8805 34.9295 14.5247 34.9295V30.8358H13.8264C10.0088 30.8358 6.19232 30.8358 2.37473 30.8358C0.828062 30.8358 -0.00111391 30.0353 -0.00224204 28.4792C-0.0044983 21.3375 0.00339862 14.1969 0.0169362 7.05519C0.0191924 5.63629 0.875444 4.80092 2.32171 4.7908C4.22035 4.77843 6.12012 4.77394 8.01877 4.79755C8.43279 4.80317 8.64601 4.67724 8.83892 4.30734C9.68953 2.67032 11.5273 1.87318 13.2082 2.3735C14.9838 2.90193 16.0939 4.51534 15.9428 6.34799C15.795 8.13117 14.3679 9.55906 12.529 9.76369C10.724 9.96382 8.89307 8.63487 8.51627 6.84944C8.47453 6.65043 8.43505 6.4503 8.38541 6.21082L8.38654 6.20858ZM1.41582 25.1557C1.41582 26.2148 1.41582 27.2065 1.41582 28.1993C1.41582 29.1954 1.60647 29.3888 2.58569 29.3888C10.8549 29.3888 19.1241 29.3888 27.3933 29.3888H28.0735C27.5546 27.9553 27.5309 26.5769 27.9934 25.1557H1.41582ZM38.0925 27.1581C38.0868 24.6486 36.0957 22.6777 33.5743 22.6867C31.0935 22.6957 29.1092 24.6745 29.0968 27.1514C29.0843 29.644 31.0902 31.6498 33.5969 31.6509C36.116 31.6521 38.0981 29.671 38.0925 27.1581ZM12.1996 8.32793C13.4857 8.32456 14.5292 7.29692 14.5416 6.02194C14.554 4.72447 13.4947 3.67322 12.1827 3.67884C10.8628 3.68446 9.84408 4.71547 9.84972 6.03993C9.85536 7.30817 10.9068 8.3313 12.1996 8.32793ZM16.0082 30.8628V34.8834H18.2915V30.8628H16.0082Z" fill="white"/>
<path d="M21.7977 8.91814C22.117 8.05466 22.4148 7.24852 22.7127 6.44238C22.7905 6.23213 22.8672 6.02075 22.9529 5.81275C23.1301 5.38326 23.4448 5.19325 23.8961 5.35965C24.336 5.52155 24.4195 5.89371 24.2864 6.2861C23.992 7.1552 23.6738 8.01643 23.3399 8.87092C23.1143 9.4477 22.9529 9.9795 23.1549 10.6372C23.4065 11.4591 23.1222 12.2293 22.4915 12.8398C21.844 13.466 21.1931 14.0889 20.5376 14.7073C19.7908 15.4122 18.8872 15.7259 17.8718 15.7428C17.3326 15.7518 16.7934 15.7439 16.1966 15.7439C16.1966 16.9694 16.1988 18.1264 16.1966 19.2844C16.1932 20.6179 15.5637 21.2509 14.2325 21.2531C11.807 21.2554 9.38041 21.2565 6.95493 21.2531C5.54928 21.2509 4.8645 20.4245 5.09802 19.0303C5.34283 17.5709 5.58086 16.1105 5.83244 14.6533C6.21713 12.4227 7.88225 11.0173 10.152 11.0105C12.4647 11.0038 14.7785 11.0184 17.0912 10.9948C17.3563 10.9925 17.6575 10.8486 17.8741 10.6833C18.2453 10.4 18.5781 10.0616 18.8984 9.71979C19.6848 8.87991 20.6042 8.5235 21.7989 8.91927L21.7977 8.91814ZM9.59814 19.8308C11.1809 19.8308 12.6802 19.8174 14.1795 19.8387C14.6307 19.8455 14.765 19.6802 14.7582 19.2484C14.7379 17.9375 14.7469 16.6265 14.7526 15.3144C14.7559 14.5319 14.9861 14.3048 15.7566 14.3003C16.5079 14.2958 17.2683 14.3621 18.0083 14.2733C18.5059 14.2137 19.0553 14.0383 19.4422 13.737C20.1789 13.1636 20.8287 12.4755 21.4898 11.811C21.9309 11.368 21.923 10.8835 21.527 10.4675C21.1694 10.0919 20.6064 10.0886 20.1687 10.4877C19.6565 10.9554 19.1432 11.4254 18.6649 11.9268C18.3276 12.281 17.9565 12.4159 17.468 12.4125C15.0628 12.3946 12.6576 12.3979 10.2525 12.4069C8.85921 12.4114 7.67806 13.1175 7.4152 14.2801C7.03164 15.9755 6.78119 17.7014 6.50255 19.4193C6.48337 19.5351 6.68305 19.7881 6.81165 19.8117C7.91948 20.0186 8.10336 19.8814 8.30643 18.7965C8.33689 18.6312 8.37073 18.4659 8.40006 18.3006C8.53657 17.5271 8.66292 16.7513 8.81296 15.98C8.8987 15.5427 9.19539 15.3358 9.63649 15.4111C10.0923 15.4887 10.24 15.8103 10.2006 16.2397C10.187 16.3882 10.1599 16.5366 10.1351 16.6839C9.96252 17.6969 9.78992 18.711 9.59814 19.8331V19.8308Z" fill="white"/>
<path d="M33.5416 44.9989C30.5723 44.9989 27.6019 45.0011 24.6327 44.9989C22.6021 44.9966 21.5935 43.3506 22.5829 41.5854C24.9948 37.2826 28.6917 34.9508 33.6374 34.9654C38.6362 34.98 42.3229 37.3883 44.6999 41.7586C45.5437 43.3101 44.5205 44.9753 42.7324 44.9865C39.6696 45.0056 36.6056 44.9921 33.5416 44.9921V45V44.9989ZM33.6171 43.5676C33.6171 43.5676 33.6171 43.5597 33.6171 43.5564C36.6225 43.5564 39.6289 43.5597 42.6343 43.5541C43.4759 43.553 43.7839 43.0763 43.3935 42.3601C41.3065 38.534 38.0721 36.4326 33.7063 36.3854C29.3111 36.3382 26.0361 38.4126 23.8667 42.2094C23.3489 43.1168 23.6479 43.5676 24.7117 43.5676C27.6798 43.5699 30.6479 43.5676 33.616 43.5676H33.6171Z" fill="white"/>
<path d="M27.3414 0.00220868C29.8977 0.00220868 32.4552 0.00108436 35.0115 0.00220868C36.5796 0.00333301 37.4189 0.831961 37.4223 2.39702C37.428 5.32027 37.428 8.24464 37.4223 11.1679C37.4189 12.7138 36.6033 13.5447 35.0645 13.5492C31.7366 13.5582 28.4097 13.5526 25.0817 13.5515C24.9509 13.5515 24.8177 13.5515 24.688 13.5335C24.2965 13.4795 24.072 13.2456 24.0698 12.8577C24.0675 12.4395 24.3112 12.2023 24.7275 12.1584C24.8944 12.1404 25.0659 12.1505 25.2351 12.1505C28.4503 12.1505 31.6644 12.1505 34.8795 12.1505C35.8023 12.1505 36.0054 11.9493 36.0065 11.0273C36.0077 8.19742 36.0077 5.36749 36.0065 2.53756C36.0065 1.60775 35.8272 1.4346 34.8739 1.4346C29.8537 1.4346 24.8347 1.4346 19.8145 1.4346C18.8849 1.4346 18.6988 1.62236 18.6988 2.55892C18.6976 4.20831 18.6988 5.8577 18.6988 7.50708C18.6988 7.67573 18.7055 7.8455 18.6886 8.01303C18.648 8.4324 18.4043 8.66514 17.9858 8.66289C17.5593 8.66064 17.319 8.40654 17.3055 7.99279C17.2841 7.31932 17.2954 6.6436 17.2954 5.969C17.2954 4.73225 17.2875 3.49549 17.2976 2.25873C17.3089 0.878058 18.1787 0.010079 19.5595 0.00670599C22.1542 -0.00116429 24.7489 0.00445734 27.3425 0.00445734L27.3414 0.00220868Z" fill="white"/>
<path d="M28.8249 4.72556C27.8851 4.72556 26.9454 4.73118 26.0068 4.72331C25.4326 4.71881 25.0975 4.44897 25.1257 4.00711C25.1584 3.48767 25.5104 3.31116 25.9763 3.31003C27.9303 3.30666 29.8853 3.30104 31.8392 3.3134C32.3751 3.31678 32.6921 3.60798 32.6616 4.03185C32.6255 4.54567 32.2882 4.72556 31.8122 4.72556C30.816 4.72443 29.8199 4.72556 28.8249 4.72556Z" fill="white"/>
<path d="M29.4656 7.48689C28.7132 7.48689 27.9618 7.49364 27.2094 7.48464C26.6035 7.4779 26.3193 7.24854 26.3125 6.79094C26.3057 6.33446 26.6047 6.08261 27.1913 6.08149C28.7323 6.07587 30.2745 6.07587 31.8155 6.08149C32.357 6.08374 32.6594 6.34345 32.665 6.77182C32.6706 7.20131 32.3705 7.4734 31.8336 7.4824C31.0439 7.49589 30.2542 7.48577 29.4656 7.48689Z" fill="white"/>
<path d="M30.1324 10.2517C29.5694 10.2517 29.0065 10.2573 28.4436 10.2494C27.9777 10.2438 27.6866 10.0099 27.681 9.53659C27.6764 9.08011 27.9856 8.8485 28.4041 8.84063C29.5852 8.82039 30.7686 8.81927 31.9498 8.844C32.3695 8.853 32.6729 9.0981 32.6571 9.55345C32.6413 10.0268 32.339 10.2472 31.8765 10.2505C31.2944 10.255 30.7134 10.2505 30.1313 10.2505L30.1324 10.2517Z" fill="white"/>
<path d="M17.1465 27.9823C16.8272 27.9823 16.5079 27.9991 16.1909 27.9778C15.7634 27.9496 15.4746 27.7327 15.4701 27.2773C15.4655 26.8208 15.7521 26.5858 16.1785 26.569C16.834 26.5431 17.4917 26.5454 18.1471 26.569C18.5871 26.5847 18.8544 26.8613 18.8443 27.293C18.8353 27.6944 18.5769 27.9485 18.1595 27.9733C17.8233 27.9935 17.4849 27.9778 17.1476 27.9778C17.1476 27.9789 17.1476 27.98 17.1476 27.9811L17.1465 27.9823Z" fill="white"/>
</g>
<defs>
<clipPath id="clip0_31_199">
<rect width="45" height="45" fill="white"/>
</clipPath>
</defs>
</svg>
