<svg width="43" height="45" viewBox="0 0 43 45" fill="none" xmlns="http://www.w3.org/2000/svg">
<path d="M7.43472 37.1906C5.68491 36.5256 5.00524 34.625 5.91559 33.0158C6.30381 32.3294 6.90696 31.9502 7.70366 31.9355C8.5465 31.9198 9.39271 31.8995 10.2333 31.9412C10.689 31.9637 10.8837 31.8028 11.0412 31.3875C12.1598 28.4528 14.1515 26.3159 16.976 24.9363C22.6598 22.1591 29.8942 24.7484 32.5004 30.5053C32.578 30.6764 32.6984 30.8395 32.7254 31.0173C32.8503 31.8478 33.3488 32.0222 34.1106 31.9434C34.7779 31.8748 35.4587 31.9187 36.1339 31.9333C37.3481 31.9592 38.2213 32.8189 38.2573 34.0263C38.2708 34.4753 38.2888 34.931 38.2269 35.3733C38.1133 36.1824 37.635 36.7506 36.871 37.0196C36.5289 37.14 36.4692 37.3223 36.4715 37.6362C36.4827 39.305 36.4805 40.9727 36.4749 42.6415C36.4704 44.1268 35.614 44.9967 34.1455 44.9967C26.0097 44.9989 17.8728 45.0001 9.73704 44.9967C8.28543 44.9967 7.43809 44.137 7.43359 42.6786C7.42909 40.8613 7.43359 39.044 7.43359 37.1906H7.43472ZM35.0289 37.1591C34.7127 37.1591 34.473 37.1591 34.2333 37.1591C27.5019 37.1591 20.7704 37.1591 14.039 37.1591C13.8331 37.1591 13.6249 37.1692 13.4212 37.1445C13.0307 37.0972 12.8124 36.8609 12.8046 36.4682C12.7967 36.044 13.033 35.8088 13.4471 35.7604C13.6328 35.739 13.8218 35.7503 14.0086 35.7503C21.2836 35.7458 28.5585 35.7424 35.8334 35.7379C36.6166 35.7379 36.8383 35.5207 36.8496 34.7476C36.8507 34.6351 36.8507 34.5226 36.8496 34.41C36.8428 33.5402 36.6662 33.3613 35.7828 33.359C34.3402 33.3557 32.8965 33.359 31.4538 33.359C23.8233 33.359 16.1928 33.359 8.56225 33.359C7.09488 33.359 7.02737 33.4277 7.07238 34.8737C7.09263 35.5083 7.32894 35.7379 7.9771 35.7424C8.87733 35.748 9.77643 35.7435 10.6767 35.7525C11.2438 35.7581 11.5735 36.0304 11.5656 36.4637C11.5577 36.8924 11.2269 37.1501 10.6564 37.1569C10.0791 37.1636 9.50186 37.158 8.84807 37.158C8.84807 37.4235 8.84807 37.6238 8.84807 37.8241C8.84807 39.3433 8.84807 40.8613 8.84807 42.3804C8.84807 43.4416 8.97748 43.5665 10.0589 43.5665C17.9899 43.5665 25.922 43.5665 33.8529 43.5665C34.0026 43.5665 34.1534 43.5665 34.3031 43.5631C34.752 43.5507 35.021 43.3178 35.0244 42.871C35.0367 40.9986 35.0289 39.1261 35.0289 37.158V37.1591ZM21.7618 27.2037C21.5547 27.4322 21.4884 27.4974 21.4321 27.5695C20.4677 28.8039 19.4235 28.8298 18.413 27.646C18.0506 27.2206 17.6827 26.7998 17.3001 26.3564C14.9707 27.6021 13.3346 29.4037 12.3623 31.8984C12.611 31.9119 12.7753 31.9277 12.9385 31.9277C14.7952 31.9299 16.6519 31.913 18.5086 31.9401C18.9666 31.9468 19.1444 31.7971 19.1748 31.3538C19.1984 31.0004 19.2839 30.6505 19.3582 30.3028C19.4538 29.8617 19.7149 29.5983 20.1909 29.6569C20.6163 29.7097 20.8413 30.0878 20.7603 30.5875C20.6917 31.0083 20.6039 31.4258 20.5172 31.8838H22.7622C22.5698 30.7259 22.4032 29.6163 22.1939 28.5158C22.1174 28.1107 21.9373 27.7259 21.7629 27.2049L21.7618 27.2037ZM26.1493 26.1404C25.3357 27.0079 24.8259 28.1085 23.6602 28.5383C23.8469 29.6771 24.027 30.781 24.2104 31.8962H31.5427C30.4794 29.2135 28.6834 27.3241 26.1504 26.1392L26.1493 26.1404ZM24.7866 25.5631C23.6838 25.4179 22.7374 25.293 21.8394 25.1749C22.2614 25.7341 22.6767 26.272 23.0784 26.82C23.2764 27.0912 23.4497 27.1554 23.6872 26.8572C23.9989 26.4656 24.3342 26.0931 24.7866 25.5631ZM18.6358 25.7127C18.9925 26.1302 19.2299 26.4138 19.4741 26.6929C19.9231 27.2049 19.9467 27.2026 20.3552 26.6287C20.6647 26.1955 20.9752 25.7611 21.3713 25.2075C20.4385 25.3797 19.6103 25.5327 18.6346 25.7127H18.6358Z" fill="white"/>
<path d="M42.1125 13.0398C42.1125 14.5218 42.1159 16.0027 42.1125 17.4846C42.108 18.9678 41.2607 19.8477 39.7945 19.8556C37.4314 19.8691 35.0683 19.8691 32.7052 19.8556C31.2693 19.8466 30.4074 18.9633 30.4051 17.5229C30.3995 14.5038 30.3984 11.4846 30.4051 8.46439C30.4085 7.01841 31.2716 6.16769 32.7232 6.16544C35.0863 6.16207 37.4494 6.16094 39.8125 6.16544C41.2483 6.16882 42.1069 7.03416 42.1125 8.4824C42.1182 10.0015 42.1137 11.5207 42.1137 13.0398H42.1125ZM31.8275 13.0184C31.8275 14.4993 31.8241 15.9801 31.8286 17.461C31.8308 18.1778 32.0593 18.4198 32.7569 18.422C35.0998 18.4276 37.4437 18.4288 39.7866 18.422C40.4347 18.4198 40.6744 18.1891 40.6755 17.5375C40.6834 14.5195 40.6834 11.5015 40.6755 8.48352C40.6733 7.8061 40.4347 7.57317 39.7483 7.56979C37.4235 7.56192 35.0998 7.56192 32.7749 7.56979C32.066 7.57205 31.8297 7.81736 31.8275 8.51953C31.8218 10.0195 31.8263 11.5184 31.8263 13.0184H31.8275Z" fill="white"/>
<path d="M9.14403 12.8203C10.8927 13.4257 11.3608 11.9459 12.0416 10.9546C12.8282 9.80903 12.7854 8.54759 12.0743 7.34579C11.1673 5.81316 9.2183 5.24377 7.60915 6.01571C7.54163 6.04834 7.47974 6.09335 7.40997 6.11923C7.0105 6.27002 6.64928 6.21826 6.44786 5.81428C6.25206 5.42269 6.36684 5.07047 6.75844 4.86004C8.28994 4.03521 9.85634 4.00033 11.3845 4.81278C14.1932 6.30491 14.8818 9.83829 12.8462 12.2914C12.1463 13.1342 11.8188 14.0558 11.8886 15.1361C11.9021 15.3409 11.8863 15.548 11.8796 15.7528C11.8031 17.8795 9.71905 19.0881 7.77569 18.1417C6.83045 17.6815 6.24868 17.0176 6.37021 15.8934C6.40172 15.5975 6.36234 15.2937 6.37359 14.9943C6.4141 13.9489 6.04501 13.0757 5.37997 12.2711C4.10615 10.7306 3.92048 9.00333 4.64403 7.16012C4.8207 6.71113 5.13578 6.49845 5.61628 6.65037C6.00675 6.77415 6.16541 7.1995 5.96399 7.68338C5.34733 9.16312 5.63428 10.4617 6.68754 11.6286C6.75056 11.6984 6.82595 11.7693 6.85409 11.8537C7.18604 12.8248 7.93098 12.9486 8.80645 12.8214C8.91673 12.8057 9.0315 12.8192 9.14291 12.8192L9.14403 12.8203ZM7.78694 14.2663C7.78694 14.8233 7.78694 15.2892 7.78694 15.755C7.78919 16.5438 8.04801 16.9298 8.83233 16.9692C9.2982 16.9928 9.78544 16.7621 10.2434 16.5945C10.356 16.554 10.3942 16.3132 10.5101 16.0746C10.0398 16.0746 9.68417 16.1005 9.33421 16.0678C8.93023 16.0296 8.67817 15.7854 8.68042 15.3645C8.68267 14.9471 8.92235 14.7029 9.33533 14.6624C9.61328 14.6354 9.89797 14.6657 10.1759 14.6342C10.2704 14.623 10.3526 14.5026 10.4404 14.4317C10.3582 14.3765 10.2761 14.2741 10.1928 14.273C9.41072 14.2606 8.62865 14.2663 7.78694 14.2663Z" fill="white"/>
<path d="M22.024 10.7341C25.123 10.7926 27.6256 13.3695 27.566 16.4404C27.5052 19.5507 24.9148 22.0049 21.7674 21.9341C18.7449 21.8654 16.2873 19.2829 16.3514 16.2401C16.4156 13.1625 18.9767 10.6779 22.024 10.7353V10.7341ZM26.1166 16.3212C26.1099 14.0076 24.2273 12.1464 21.9182 12.1689C19.6305 12.1914 17.7794 14.0515 17.7772 16.3302C17.7738 18.637 19.6485 20.5117 21.9565 20.5106C24.2689 20.5083 26.1245 18.6404 26.1178 16.3212H26.1166Z" fill="white"/>
<path d="M9.11139 8.59041C9.54575 8.38561 9.96661 8.14367 10.4178 7.98951C10.8533 7.84097 11.2404 7.96025 11.4058 8.45312C11.5409 8.85485 11.3181 9.21606 10.8072 9.3511C10.2468 9.49963 9.94523 9.84172 9.87433 10.4055C9.81807 10.8567 9.63015 11.2258 9.12602 11.2258C8.62977 11.2258 8.42722 10.8939 8.37771 10.419C8.32032 9.86198 8.01312 9.49513 7.44935 9.36123C6.98348 9.24982 6.71904 8.973 6.82482 8.47113C6.91597 8.03902 7.3402 7.82184 7.85558 7.99738C8.28994 8.1448 8.69166 8.38898 9.11139 8.59266V8.59041Z" fill="white"/>
<path d="M14.1639 4.84885C13.5135 4.87023 13.1219 4.31434 13.3965 3.85635C13.7779 3.21832 14.1864 2.58591 14.6703 2.02777C14.82 1.8556 15.3016 1.82297 15.5514 1.92312C15.8755 2.05365 16.0071 2.43625 15.7922 2.77946C15.4074 3.39498 14.9989 3.99588 14.5701 4.58103C14.4621 4.72957 14.2449 4.79821 14.1639 4.84885Z" fill="white"/>
<path d="M3.07764 1.67896C3.30495 1.83875 3.5255 1.92764 3.64703 2.08968C4.03976 2.61294 4.40772 3.15532 4.76444 3.70446C5.012 4.08481 4.99399 4.4719 4.59227 4.73409C4.19054 4.99516 3.83946 4.85225 3.57839 4.47865C3.2138 3.95765 2.82558 3.4479 2.51612 2.89538C2.40135 2.68946 2.40585 2.34512 2.49474 2.11781C2.56451 1.9389 2.84696 1.84212 3.07764 1.67896Z" fill="white"/>
<path d="M16.6598 9.34546C16.3413 9.34546 16.0217 9.36571 15.7044 9.34096C15.3128 9.31057 15.0911 9.07089 15.0743 8.68041C15.0563 8.26406 15.2701 7.97599 15.6875 7.95236C16.3222 7.91747 16.9614 7.91972 17.5971 7.95011C18.0124 7.97036 18.2453 8.25168 18.2329 8.66354C18.2205 9.07314 17.9764 9.3207 17.5589 9.34546C17.2607 9.36346 16.9591 9.34883 16.6598 9.34883C16.6598 9.34883 16.6598 9.34658 16.6598 9.34546Z" fill="white"/>
<path d="M9.81583 1.62382C9.81583 1.92314 9.83608 2.22472 9.81133 2.52179C9.77644 2.9404 9.52213 3.1722 9.1069 3.16433C8.69392 3.15645 8.43286 2.92464 8.4216 2.50154C8.4036 1.88488 8.40022 1.26598 8.42498 0.649324C8.44186 0.226218 8.72318 -0.00333914 9.12716 3.6709e-05C9.53676 0.00341255 9.78657 0.2521 9.81358 0.668454C9.83383 0.985783 9.81808 1.30424 9.81808 1.62269C9.81808 1.62269 9.81695 1.62269 9.81583 1.62269V1.62382Z" fill="white"/>
<path d="M1.59227 9.34441C1.27607 9.34441 0.956489 9.36917 0.642536 9.33878C0.235184 9.2994 0 9.04959 0 8.63436C0 8.24389 0.229557 7.97832 0.606527 7.95694C1.25581 7.91868 1.91073 7.91643 2.56114 7.95581C2.96737 7.97944 3.19242 8.26414 3.17442 8.68162C3.15754 9.07209 2.92461 9.3039 2.54314 9.33991C2.22918 9.36917 1.91073 9.34554 1.5934 9.34666L1.59227 9.34441Z" fill="white"/>
<path d="M34.7723 11.7884H37.7431V10.5743C37.0792 10.5743 36.4299 10.5776 35.7806 10.5743C35.1639 10.5698 34.85 10.3222 34.8545 9.85296C34.859 9.38822 35.1729 9.14404 35.7986 9.13841C36.4918 9.13166 37.1849 9.12603 37.8781 9.14066C38.7344 9.15867 39.1958 9.61215 39.2239 10.4617C39.2408 10.967 39.2431 11.4734 39.2228 11.9786C39.1902 12.7742 38.7367 13.2401 37.9513 13.2536C36.8271 13.2738 35.7029 13.2772 34.5799 13.2536C33.5075 13.2311 32.829 11.9606 33.4197 11.0671C33.5401 10.8848 33.8654 10.7059 34.0612 10.7374C34.2851 10.7734 34.5045 11.0221 34.6598 11.2281C34.7588 11.3597 34.7363 11.5825 34.7735 11.7907L34.7723 11.7884Z" fill="white"/>
<path d="M21.8867 19.0072C21.0889 18.9757 20.3766 18.6674 19.7543 18.161C19.419 17.8887 19.3515 17.5207 19.6193 17.1674C19.8668 16.8399 20.2314 16.7634 20.56 17.0155C21.494 17.7323 22.3954 17.7131 23.3316 17.02C23.6861 16.7566 24.0653 16.8433 24.3128 17.2C24.5649 17.5623 24.4692 17.9236 24.1238 18.1846C23.4689 18.6797 22.7419 18.9937 21.8867 19.0072Z" fill="white"/>
</svg>
