<svg width="43" height="45" viewBox="0 0 43 45" fill="none" xmlns="http://www.w3.org/2000/svg">
<g clip-path="url(#clip0_31_234)">
<path d="M1 18.5885C1 13.237 1 7.88542 1 2.53499C1 0.777544 1.77054 0 3.50775 0C11.9664 0 20.424 0 28.8816 0C30.594 0 31.3775 0.802839 31.3775 2.55809C31.3775 6.40622 31.3775 10.2543 31.3775 14.1036C31.3775 14.2861 31.3948 14.4764 31.3549 14.6513C31.273 15.0142 31.023 15.2814 30.6663 15.188C30.4195 15.1231 30.191 14.8712 30.024 14.648C29.9356 14.5292 29.9906 14.2938 29.9906 14.1113C29.9895 10.2445 29.9905 6.37762 29.9895 2.5108C29.9895 1.55729 29.8343 1.40112 28.8849 1.40112C20.4273 1.40112 11.9686 1.40112 3.51098 1.40112C2.51198 1.40112 2.36865 1.55069 2.36865 2.58888C2.36865 13.2732 2.36865 23.9565 2.36865 34.6409C2.36865 35.6747 2.54215 35.8517 3.55625 35.8517C10.0029 35.8517 16.4496 35.8517 22.8962 35.8517C23.0762 35.8517 23.2562 35.8418 23.435 35.8583C23.8306 35.8957 24.072 36.1179 24.0741 36.5303C24.0763 36.9427 23.8413 37.1693 23.4426 37.2078C23.2648 37.2243 23.0837 37.221 22.9048 37.221C16.4399 37.221 9.97596 37.221 3.51098 37.221C1.73929 37.221 1 36.4621 1 34.6442C1 29.2926 1 23.9422 1 18.5907L1 18.5885Z" fill="white"/>
<path d="M25.4438 38.61C25.4438 37.5465 25.4309 36.4841 25.4514 35.4217C25.4578 35.0841 25.3393 34.907 25.0613 34.73C20.299 31.699 19.0166 25.2466 22.2334 20.5461C22.2852 20.4713 22.3358 20.3954 22.3929 20.3251C22.6688 19.983 23.004 19.8522 23.3779 20.1348C23.7487 20.4152 23.7443 20.7804 23.4868 21.1466C22.8326 22.0792 22.3671 23.0954 22.0707 24.2073C20.9693 28.3348 23.4254 33.0176 27.416 34.3571C32.0424 35.9089 36.6355 33.5873 38.2305 28.8901C39.6487 24.7132 37.295 19.7422 33.1934 18.2597C30.6178 17.3293 28.1499 17.558 25.7995 18.9976C25.6615 19.0823 25.5214 19.1791 25.3695 19.2209C25.0106 19.3177 24.7196 19.1857 24.572 18.8393C24.3985 18.4334 24.5752 18.1343 24.9169 17.911C26.3836 16.9531 27.9861 16.4175 29.7254 16.3175C36.0363 15.9556 41.0734 21.9054 39.8028 28.2303C39.3318 30.5772 38.183 32.5216 36.351 34.0228C36.018 34.2956 35.9059 34.5716 35.9091 34.9917C35.9275 37.1913 35.9059 39.3897 35.9232 41.5893C35.9307 42.5296 35.6354 43.2962 34.8013 43.7405C33.9478 44.1958 33.1374 44.0242 32.3895 43.4303C31.9929 43.1158 31.5747 42.8299 31.1728 42.523C30.8387 42.2679 30.5197 42.2767 30.1878 42.5285C29.7276 42.8782 29.261 43.2214 28.7922 43.5601C28.0831 44.0726 27.3211 44.1463 26.5571 43.735C25.8124 43.3336 25.4525 42.6572 25.446 41.7994C25.4385 40.737 25.4438 39.6735 25.4438 38.61ZM26.8825 35.6538C26.8577 35.7462 26.8319 35.7979 26.8319 35.8507C26.8287 37.8468 26.8157 39.8418 26.834 41.8379C26.8405 42.5208 27.4559 42.8079 28.0163 42.4152C28.4452 42.115 28.8547 41.7873 29.2771 41.4771C30.2524 40.7612 31.1103 40.7612 32.0953 41.4771C32.4606 41.7433 32.827 42.0072 33.1794 42.2899C33.479 42.5296 33.7872 42.7045 34.1633 42.5087C34.5448 42.3108 34.5545 41.9368 34.5534 41.5574C34.5491 39.6537 34.5524 37.7489 34.5502 35.8452C34.5502 35.6703 34.533 35.4954 34.5189 35.2425C31.9875 36.4302 29.456 36.5611 26.8836 35.6527L26.8825 35.6538Z" fill="white"/>
<path d="M4.65763 18.4257C4.65763 14.0629 4.65763 9.70116 4.65763 5.33833C4.65763 3.9867 5.28053 3.34113 6.59314 3.34113C12.987 3.33893 19.3819 3.33893 25.7758 3.34113C27.0787 3.34113 27.6929 3.9658 27.6951 5.28994C27.6983 8.27804 27.6973 11.265 27.6951 14.2531C27.6951 14.417 27.7317 14.6293 27.6488 14.7348C27.4839 14.9438 27.2414 15.2407 27.0431 15.2309C26.8103 15.2188 26.5485 14.9548 26.3814 14.7348C26.2823 14.6029 26.3318 14.3466 26.3318 14.1465C26.3297 11.2507 26.3178 8.35392 26.3415 5.4582C26.3459 4.91821 26.2165 4.72685 25.6551 4.72905C19.3323 4.74775 13.0107 4.74555 6.68797 4.73125C6.20194 4.73125 6.03382 4.85992 6.03382 5.37902C6.04783 14.1036 6.04352 22.8292 6.0446 31.5538C6.0446 32.2697 6.1362 32.3676 6.74078 31.9959C8.71939 30.7773 10.6549 30.774 12.6314 32.0003C13.5269 32.5568 14.4763 32.5084 15.4085 32.0135C15.8224 31.7935 16.2502 31.6011 16.6759 31.4075C17.7104 30.939 18.7612 30.9093 19.8184 31.3173C20.3486 31.5219 20.5501 31.8958 20.382 32.3225C20.2247 32.7207 19.8572 32.8317 19.3377 32.625C18.6329 32.3434 17.9378 32.3544 17.2481 32.6767C16.775 32.8977 16.2987 33.1122 15.8288 33.3409C14.6154 33.9315 13.4062 33.9194 12.1938 33.3365C10.5141 32.5286 8.83901 32.5297 7.16862 33.3398C5.83445 33.9865 4.66302 33.2452 4.66087 31.7341C4.6544 27.2987 4.65871 22.8622 4.65871 18.4268L4.65763 18.4257Z" fill="white"/>
<path d="M16.2416 10.5348C18.4853 10.5348 20.729 10.5348 22.9727 10.5348C23.1344 10.5348 23.2982 10.525 23.4566 10.5502C23.8187 10.6085 24.0439 10.8263 24.0579 11.2079C24.072 11.5917 23.8597 11.8271 23.5029 11.9063C23.3305 11.9448 23.1462 11.936 22.9673 11.936C18.4443 11.9371 13.9203 11.9371 9.39725 11.936C9.27116 11.936 9.14507 11.9404 9.02006 11.9305C8.58037 11.8953 8.30233 11.672 8.31849 11.2013C8.33358 10.7603 8.61054 10.5546 9.02545 10.5381C9.27655 10.5283 9.52765 10.5337 9.77874 10.5337C11.933 10.5337 14.0873 10.5337 16.2405 10.5337L16.2416 10.5348Z" fill="white"/>
<path d="M28.7825 29.7149C28.346 29.4334 27.8427 29.2629 27.5766 28.9088C26.8578 27.9519 26.2359 26.9193 25.5829 25.9119C25.3447 25.5456 25.4018 25.1893 25.7553 24.9551C26.126 24.7098 26.487 24.8066 26.7371 25.1827C27.2921 26.0152 27.8352 26.8566 28.3794 27.6957C28.7501 28.2665 28.7879 28.2742 29.3008 27.7958C31.037 26.178 32.772 24.5591 34.5071 22.9403C34.5868 22.8666 34.659 22.783 34.7442 22.717C35.0696 22.4662 35.4166 22.4157 35.7141 22.7291C36.0331 23.0656 35.9781 23.4407 35.658 23.7475C34.8994 24.4744 34.1256 25.1849 33.3572 25.902C32.244 26.9402 31.1458 27.9937 30.0089 29.0033C29.6866 29.2893 29.2545 29.4466 28.7825 29.7149Z" fill="white"/>
<path d="M16.1316 18.583C14.6229 18.583 13.1142 18.5852 11.6054 18.583C10.9782 18.5819 10.6592 18.3323 10.6668 17.8627C10.6732 17.4107 10.9814 17.1676 11.5742 17.1665C14.6455 17.1643 17.7169 17.1687 20.7883 17.1621C21.1795 17.1621 21.5125 17.2413 21.6677 17.6438C21.8552 18.1288 21.4812 18.5775 20.8734 18.5808C19.2925 18.5896 17.7126 18.5841 16.1316 18.5841V18.583Z" fill="white"/>
<path d="M16.2071 13.8616C17.7859 13.8616 19.3647 13.8594 20.9435 13.8627C21.3799 13.8627 21.6849 14.0651 21.6978 14.5358C21.7108 15.0109 21.4047 15.2099 20.9747 15.2451C20.8497 15.255 20.7236 15.2517 20.5986 15.2517C19.7559 15.2517 18.912 15.2517 18.0693 15.2517C15.9883 15.2517 13.9073 15.2517 11.8253 15.2517C11.6819 15.2517 11.5375 15.2572 11.3953 15.2451C10.9696 15.2099 10.6603 15.0296 10.6711 14.5413C10.6818 14.0596 10.9836 13.8693 11.4168 13.8638C12.0085 13.8561 12.6012 13.8605 13.1928 13.8605C14.1972 13.8605 15.2027 13.8605 16.2071 13.8616Z" fill="white"/>
<path d="M14.43 21.8857C12.9417 21.8857 11.4524 21.8857 9.9641 21.8857C9.82077 21.8857 9.67529 21.8945 9.53411 21.8747C9.16447 21.8208 8.94893 21.5953 8.94139 21.2137C8.93385 20.8343 9.12783 20.5879 9.50394 20.5318C9.69792 20.5032 9.89729 20.5054 10.0934 20.5054C12.9988 20.5043 15.9043 20.5043 18.8097 20.5054C18.9713 20.5054 19.133 20.4988 19.2935 20.5142C19.7063 20.5516 19.9736 20.7584 19.9639 21.2104C19.9542 21.658 19.688 21.8659 19.2709 21.8835C18.967 21.8967 18.6609 21.8879 18.356 21.8879C17.0466 21.8879 15.7372 21.8879 14.4278 21.8879L14.43 21.8857Z" fill="white"/>
<path d="M16.137 8.59151C14.5766 8.59151 13.0161 8.59701 11.4556 8.58821C10.8564 8.58491 10.5331 8.19009 10.6969 7.68859C10.8402 7.25088 11.197 7.22778 11.5731 7.22778C14.2629 7.23108 16.9539 7.22998 19.6438 7.22998C20.0921 7.22998 20.5404 7.22888 20.9887 7.23328C21.4133 7.23768 21.6838 7.45434 21.6957 7.88985C21.7075 8.35946 21.4252 8.58821 20.979 8.58931C19.3647 8.59371 17.7503 8.59151 16.1359 8.59261L16.137 8.59151Z" fill="white"/>
<path d="M12.266 28.1489C11.225 28.1489 10.184 28.1544 9.14292 28.1467C8.58684 28.1423 8.29263 27.8893 8.31419 27.4406C8.33897 26.9215 8.68167 26.7621 9.12244 26.761C11.2228 26.7566 13.3221 26.7577 15.4225 26.761C15.873 26.761 16.2006 26.9413 16.2286 27.4483C16.2523 27.8871 15.9409 28.1445 15.388 28.1478C14.347 28.1544 13.306 28.15 12.2649 28.15L12.266 28.1489Z" fill="white"/>
</g>
<defs>
<clipPath id="clip0_31_234">
<rect width="39" height="44" fill="white" transform="translate(1)"/>
</clipPath>
</defs>
</svg>
