<svg width="15" height="15" viewBox="0 0 15 15" fill="none" xmlns="http://www.w3.org/2000/svg">
<g clip-path="url(#clip0_11_4)">
<path d="M14.375 6.87488C14.2092 6.87488 14.0503 6.80903 13.9331 6.69182C13.8158 6.57461 13.75 6.41564 13.75 6.24988C13.7487 4.9242 13.2215 3.6532 12.2841 2.71581C11.3467 1.77841 10.0757 1.2512 8.75 1.24988C8.58424 1.24988 8.42527 1.18403 8.30806 1.06682C8.19085 0.949611 8.125 0.790639 8.125 0.624879C8.125 0.459119 8.19085 0.300148 8.30806 0.182937C8.42527 0.0657271 8.58424 -0.000120912 8.75 -0.000120912C10.407 0.00169884 11.9957 0.660764 13.1674 1.83247C14.3391 3.00418 14.9982 4.59283 15 6.24988C15 6.41564 14.9342 6.57461 14.8169 6.69182C14.6997 6.80903 14.5408 6.87488 14.375 6.87488ZM12.5 6.24988C12.5 5.25532 12.1049 4.30149 11.4017 3.59823C10.6984 2.89497 9.74456 2.49988 8.75 2.49988C8.58424 2.49988 8.42527 2.56573 8.30806 2.68294C8.19085 2.80015 8.125 2.95912 8.125 3.12488C8.125 3.29064 8.19085 3.44961 8.30806 3.56682C8.42527 3.68403 8.58424 3.74988 8.75 3.74988C9.41304 3.74988 10.0489 4.01327 10.5178 4.48211C10.9866 4.95095 11.25 5.58684 11.25 6.24988C11.25 6.41564 11.3158 6.57461 11.4331 6.69182C11.5503 6.80903 11.7092 6.87488 11.875 6.87488C12.0408 6.87488 12.1997 6.80903 12.3169 6.69182C12.4342 6.57461 12.5 6.41564 12.5 6.24988ZM13.8644 13.8524L14.4331 13.1968C14.7951 12.8336 14.9984 12.3417 14.9984 11.8289C14.9984 11.3162 14.7951 10.8243 14.4331 10.4611C14.4138 10.4418 12.91 9.28488 12.91 9.28488C12.5491 8.94134 12.0697 8.75004 11.5714 8.75074C11.0732 8.75144 10.5943 8.94408 10.2344 9.28863L9.04313 10.2924C8.07074 9.88994 7.18743 9.29937 6.44393 8.55458C5.70043 7.80979 5.11139 6.92546 4.71063 5.95238L5.71063 4.76488C6.05545 4.40499 6.24831 3.92605 6.24913 3.42763C6.24994 2.92921 6.05865 2.44965 5.715 2.08863C5.715 2.08863 4.55688 0.586754 4.5375 0.567379C4.18091 0.208472 3.69743 0.00426785 3.19152 -0.00111167C2.68561 -0.00649119 2.1979 0.187386 1.83375 0.538629L1.115 1.16363C-3.13125 6.08988 6.0125 15.163 11.1013 14.9999C11.6151 15.0029 12.1244 14.9029 12.5989 14.7058C13.0735 14.5087 13.5038 14.2185 13.8644 13.8524Z" fill="#A9D0D5"/>
</g>
<defs>
<clipPath id="clip0_11_4">
<rect width="15" height="15" fill="white"/>
</clipPath>
</defs>
</svg>
