<svg width="20" height="20" viewBox="0 0 20 20" fill="none" xmlns="http://www.w3.org/2000/svg">
<path d="M19.7403 18.4322L16.4387 15.1306C17.9435 13.2903 18.6833 10.942 18.5052 8.5714C18.3271 6.20086 17.2446 3.98945 15.4818 2.3946C13.7189 0.79975 11.4105 -0.0565217 9.03402 0.0028979C6.65753 0.0623175 4.39479 1.03288 2.71384 2.71384C1.03288 4.39479 0.0623175 6.65753 0.0028979 9.03402C-0.0565217 11.4105 0.79975 13.7189 2.3946 15.4818C3.98945 17.2446 6.20086 18.3271 8.5714 18.5052C10.942 18.6833 13.2903 17.9435 15.1306 16.4387L18.4322 19.7403C18.6067 19.9088 18.8404 20.0021 19.083 20C19.3255 19.9979 19.5575 19.9006 19.729 19.729C19.9006 19.5575 19.9979 19.3255 20 19.083C20.0021 18.8404 19.9088 18.6067 19.7403 18.4322ZM9.28042 16.6811C7.81671 16.6811 6.38587 16.247 5.16884 15.4338C3.95181 14.6206 3.00325 13.4648 2.44311 12.1125C1.88298 10.7602 1.73642 9.27221 2.02197 7.83663C2.30753 6.40104 3.01237 5.08237 4.04737 4.04737C5.08237 3.01237 6.40104 2.30753 7.83663 2.02197C9.27221 1.73642 10.7602 1.88298 12.1125 2.44311C13.4648 3.00325 14.6206 3.95181 15.4338 5.16884C16.247 6.38587 16.6811 7.81671 16.6811 9.28042C16.6789 11.2425 15.8985 13.1236 14.511 14.511C13.1236 15.8985 11.2425 16.6789 9.28042 16.6811Z" fill="#1A3254" fill-opacity="0.5"/>
</svg>

